<?xml version="1.0"?>
<svg xmlns="http://www.w3.org/2000/svg" xmlns:xlink="http://www.w3.org/1999/xlink" version="1.1" id="Capa_1" x="0px" y="0px" width="512px" height="512px" viewBox="0 0 399 399" style="enable-background:new 0 0 399 399;" xml:space="preserve" class=""><g><g>
	<g>
		<path d="M393.133,83.117l-0.697-0.197c-12.685-3.59-189.762-53.608-190.916-53.934c-1.313-0.373-2.724-0.373-4.037,0    C195.632,29.508,6.045,83.052,5.15,83.313C3.602,83.813,0,85.502,0,90.374v193.123c0,3.022,1.805,5.721,4.599,6.875    l192.059,79.365c0.509,0.209,1.062,0.362,1.646,0.458l0.19,0.028c0.368,0.049,0.697,0.07,1.017,0.07    c0.319,0,0.628-0.021,0.97-0.064l0.207-0.032c0.588-0.096,1.146-0.25,1.654-0.459l192.062-79.364    c2.792-1.154,4.596-3.853,4.596-6.875V90.373C399.001,89.399,398.717,84.472,393.133,83.117z M192.065,351.743L14.873,278.524    V101.041l177.192,65.288V351.743z M199.501,131.947c-4.1,0-7.436,3.335-7.436,7.436v7.936c0,0.811,0.141,1.633,0.418,2.443    l0.341,0.996L31.486,91.311l160.776-45.398l0.146,0.463c0.978,3.112,3.829,5.204,7.093,5.204c3.265,0,6.115-2.091,7.093-5.204    l0.146-0.463l160.775,45.398l-161.339,59.446l0.341-0.996c0.278-0.811,0.418-1.632,0.418-2.443v-7.936    C206.938,135.283,203.602,131.947,199.501,131.947z M384.129,278.524l-177.191,73.219V166.329l177.191-65.288V278.524z" data-original="#000000" class="active-path" data-old_color="#000000" fill="#1273EB"/>
		<path d="M199.501,85.972c4.101,0,7.437-3.335,7.437-7.436v-7.937c0-4.1-3.336-7.436-7.437-7.436c-4.101,0-7.436,3.335-7.436,7.436    v7.938C192.065,82.636,195.401,85.972,199.501,85.972z" data-original="#000000" class="active-path" data-old_color="#000000" fill="#1273EB"/>
		<path d="M206.938,104.99c0-4.1-3.336-7.436-7.437-7.436c-4.101,0-7.436,3.335-7.436,7.436v7.938c0,4.1,3.335,7.436,7.436,7.436    c4.101,0,7.437-3.335,7.437-7.436V104.99z" data-original="#000000" class="active-path" data-old_color="#000000" fill="#1273EB"/>
	</g>
</g></g> </svg>
